<svg xmlns="http://www.w3.org/2000/svg" version="1.1" xmlns:xlink="http://www.w3.org/1999/xlink" xmlns:svgjs="http://svgjs.dev/svgjs" width="1500" height="537" viewBox="0 0 1500 537"><g transform="matrix(1,0,0,1,-0.9090909090909918,-0.34500982806679303)"><svg viewBox="0 0 396 142" data-background-color="#162836" preserveAspectRatio="xMidYMid meet" height="537" width="1500" xmlns="http://www.w3.org/2000/svg" xmlns:xlink="http://www.w3.org/1999/xlink"><g id="tight-bounds" transform="matrix(1,0,0,1,0.2400000000000091,0.09123164913498272)"><svg viewBox="0 0 395.52 141.81753670173006" height="141.81753670173006" width="395.52"><g><svg viewBox="0 0 505.3823520204061 181.20974983834094" height="141.81753670173006" width="395.52"><g transform="matrix(1,0,0,1,109.86235202040606,25.044183950161454)"><svg viewBox="0 0 395.52 131.12138193801803" height="131.12138193801803" width="395.52"><g id="textblocktransform"><svg viewBox="0 0 395.52 131.12138193801803" height="131.12138193801803" width="395.52" id="textblock"><g><svg viewBox="0 0 395.52 89.24789764466415" height="89.24789764466415" width="395.52"><g transform="matrix(1,0,0,1,0,0)"><svg width="395.52" viewBox="1.05 -37.8 171.94 38.8" height="89.24789764466415" data-palette-color="#cf7650"><path d="M4.6-2.5L5.35-6.9 7.3-32.5 3.2-33.5 3.45-35.25 9.55-35 12.8-35 12.8-34 20.6-14.55 22.85-8 22.95-8 24.95-14.2 32.85-34 32.85-35 35.85-35 42.7-35.25 42.6-33.5 38.45-32.5 40.65-7.5 41.55-2.4 44.95-1.5 44.7 0.25 38.6 0 31.75 0.25 31.85-1.5 35.45-2.35 35.6-7 35.15-14.5 33.75-29.5 33.5-29.5 31.55-23.4 23.4-2.3 24.2 0 21.8 1 20.85-1.35 11.55-23.55 9.6-29.5 9.4-29.5 8.35-13.35 8.15-6.8 8.25-2.45 11.9-1.45 11.65 0.3 6.4 0 1.05 0.25 1.15-1.5 4.6-2.5ZM55.35-24.95L55.05-17.25 55.05-6.35 56.4-3.05 60.6-2.5 66.05-5.75 66.05-11.05 66-17.3 65.75-22.5 62.2-22.35 61.95-24.1 68.85-25.45 71.35-24.9 71-18.1 70.95-14.1 71.05-11.05 71.05-2.05 74.55-1.05 74.3 0.7 67.45 0.7 66.3-3.5 60.65 0.65 55.55 1 50.95-2.15 50.2-6.15 50.25-16.85 49.75-22.55 46.2-22.4 45.95-24.15 52.85-25.5 55.35-24.95ZM80.35-7.5L80.75-1.95 84.9-1.3 89.55-1.95 90.65-5.35 89.3-7.95 80-13.6 78-16.75 77.9-22.05 81.45-25.05 86.7-26 94.05-24.5 93-17.15 90.9-17.85 89.95-23.05 86.5-23.7 82.75-22.85 81.8-20.1 83-17.15 92.6-11.65 94.95-8.7 95.15-4 91.75 0 85.75 1 81.6 0.8 76.95-1 78.2-8.2 80.35-7.5ZM112.59-12.9L103.94-13.45 103.89-13 105.24-5.95 109.19-2.05 113.79-1.55 118.49-4.05 119.39-2.75 115.44 0.4 110.74 1 105.84-0.15 101.59-3.7 99.04-11.2 99.89-17.9 102.49-22.6 107.74-25.5 112.14-26.05 115.64-24.95 118.34-22.5 119.89-18.05 119.94-13.9 119.24-13.35 112.59-12.9ZM110.24-23.8L106.44-21.55 104.49-17.75 104.19-15.5 111.79-15.4 115.24-16.15 114.94-20.8 113.44-23.35 110.24-23.8ZM137.34-12.9L128.69-13.45 128.64-13 129.99-5.95 133.94-2.05 138.54-1.55 143.24-4.05 144.14-2.75 140.19 0.4 135.49 1 130.59-0.15 126.34-3.7 123.79-11.2 124.64-17.9 127.24-22.6 132.49-25.5 136.89-26.05 140.39-24.95 143.09-22.5 144.64-18.05 144.69-13.9 143.99-13.35 137.34-12.9ZM134.99-23.8L131.19-21.55 129.24-17.75 128.94-15.5 136.54-15.4 139.99-16.15 139.69-20.8 138.19-23.35 134.99-23.8ZM157.19-13.8L162.44-19.6 164.74-22.95 161.39-23.5 161.64-25.25 166.89-25 171.49-25.25 171.39-23.5 167.89-22.4 160.74-14.7 164.89-8.85 170.04-2.5 172.99-1.5 172.74 0.25 167.54 0 162.79 0.25 162.89-1.5 165.29-1.65 163.94-4.15 158.14-11.85 155.69-11.85 155.79-8.3 155.89-2.5 159.34-1.5 159.04 0.25 153.49 0 147.09 0.25 147.29-1.5 150.79-2.35 150.94-7.75 151.14-18.7 150.94-29.85 150.69-34.85 147.14-34.7 146.89-36.45 153.79-37.8 156.29-37.25 155.94-30.65 155.64-13.8 157.19-13.8Z" opacity="1" transform="matrix(1,0,0,1,0,0)" fill="#cf7650" class="wordmark-text-0" data-fill-palette-color="primary" id="text-0"></path></svg></g></svg></g><g transform="matrix(1,0,0,1,0,110.31718432902588)"><svg viewBox="0 0 232.209792 20.804197608992144" height="20.804197608992144" width="232.209792"><g transform="matrix(1,0,0,1,0,0)"><svg width="232.209792" viewBox="1.49 -36.01 519.0699999999999 46.51" height="20.804197608992144" data-palette-color="#cf7650"><path d="M14.99-35.01L20-35.01 33.5 0 28.49 0 25.39-8.06 9.59-8.06 6.49 0 1.49 0 14.99-35.01ZM17.5-28.49L11.5-13.06 23.46-13.06 17.5-28.49ZM70.6-21.19L59.62-21.19 59.62 0 54.81 0 54.81-21.19 43.8-21.19 43.8 0 39.01 0 39.01-26 43.8-26 43.8-21.41Q43.85-22.36 44.24-23.21 44.63-24.05 45.27-24.67 45.92-25.29 46.77-25.65 47.63-26 48.61-26L48.61-26 54.81-26Q55.76-26 56.61-25.65 57.47-25.29 58.13-24.67 58.79-24.05 59.19-23.21 59.59-22.36 59.62-21.41L59.62-21.41Q59.67-22.36 60.04-23.21 60.42-24.05 61.07-24.67 61.72-25.29 62.57-25.65 63.43-26 64.4-26L64.4-26 70.6-26Q71.6-26 72.48-25.62 73.36-25.24 74.01-24.6 74.66-23.95 75.03-23.07 75.41-22.19 75.41-21.19L75.41-21.19 75.41 0 70.6 0 70.6-21.19ZM106.42-21.19L106.42-4.81Q106.42-3.81 106.04-2.93 105.66-2.05 105.01-1.4 104.37-0.76 103.49-0.38 102.61 0 101.61 0L101.61 0 88.2 0 88.2 10.5 83.42 10.5 83.42-26 88.2-26 88.2-21.61Q88.28-22.53 88.69-23.33 89.11-24.12 89.74-24.72 90.38-25.32 91.22-25.66 92.06-26 93.01-26L93.01-26 101.61-26Q102.61-26 103.49-25.62 104.37-25.24 105.01-24.6 105.66-23.95 106.04-23.07 106.42-22.19 106.42-21.19L106.42-21.19ZM88.2-4.81L101.61-4.81 101.61-21.19 88.2-21.19 88.2-4.81ZM114.42-36.01L119.21-36.01 119.21 0 114.42 0 114.42-36.01ZM127.46-26L132.27-26 132.27 0 127.46 0 127.46-26ZM127.21-31.01L127.21-36.01 132.51-36.01 132.51-31.01 127.21-31.01ZM158.7-31.2L150.16-31.2 150.16-26 158.7-26 158.7-21.19 150.16-21.19 150.16 0 145.35 0 145.35-21.19 139-21.19 139-26 145.35-26 145.35-31.2Q145.35-32.2 145.73-33.07 146.11-33.94 146.76-34.59 147.42-35.25 148.3-35.63 149.18-36.01 150.16-36.01L150.16-36.01 158.7-36.01 158.7-31.2ZM171.76 10.5L166.98 10.5 172.42-2.34 162.22-26 167.27-26 174.86-8.11 182.46-26 187.51-26 171.76 10.5ZM214.04 10.5L209.26 10.5 214.7-2.34 204.5-26 209.55-26 217.14-8.11 224.74-26 229.79-26 214.04 10.5ZM257.28-21.19L257.28-4.81Q257.28-3.81 256.9-2.93 256.52-2.05 255.87-1.4 255.23-0.76 254.36-0.38 253.49 0 252.49 0L252.49 0 239.58 0Q238.6 0 237.72-0.38 236.84-0.76 236.2-1.4 235.55-2.05 235.17-2.93 234.79-3.81 234.79-4.81L234.79-4.81 234.79-21.19Q234.79-22.19 235.17-23.07 235.55-23.95 236.2-24.6 236.84-25.24 237.72-25.62 238.6-26 239.58-26L239.58-26 252.49-26Q253.49-26 254.36-25.62 255.23-25.24 255.87-24.6 256.52-23.95 256.9-23.07 257.28-22.19 257.28-21.19L257.28-21.19ZM252.49-21.19L239.58-21.19 239.58-4.81 252.49-4.81 252.49-21.19ZM265.28-4.81L265.28-26 270.07-26 270.07-4.81 283.47-4.81 283.47-26 288.28-26 288.28 0 283.47 0 283.47-4.39Q283.4-3.49 282.98-2.69 282.57-1.88 281.92-1.28 281.27-0.68 280.44-0.34 279.61 0 278.69 0L278.69 0 270.07 0Q269.09 0 268.21-0.38 267.33-0.76 266.69-1.4 266.04-2.05 265.66-2.93 265.28-3.81 265.28-4.81L265.28-4.81ZM310.98-21.19L301.07-21.19 301.07 0 296.29 0 296.29-26 301.07-26 301.07-21.41Q301.12-22.36 301.51-23.21 301.9-24.05 302.55-24.67 303.2-25.29 304.05-25.65 304.9-26 305.88-26L305.88-26 310.98-26Q311.98-26 312.85-25.62 313.72-25.24 314.38-24.6 315.04-23.95 315.41-23.07 315.79-22.19 315.79-21.19L315.79-21.19 315.79-16.8 310.98-16.8 310.98-21.19ZM359.76-21.19L359.76-4.81Q359.76-3.81 359.38-2.93 359-2.05 358.35-1.4 357.71-0.76 356.83-0.38 355.95 0 354.95 0L354.95 0 341.54 0 341.54 10.5 336.76 10.5 336.76-26 341.54-26 341.54-21.61Q341.62-22.53 342.03-23.33 342.45-24.12 343.08-24.72 343.72-25.32 344.56-25.66 345.4-26 346.35-26L346.35-26 354.95-26Q355.95-26 356.83-25.62 357.71-25.24 358.35-24.6 359-23.95 359.38-23.07 359.76-22.19 359.76-21.19L359.76-21.19ZM341.54-4.81L354.95-4.81 354.95-21.19 341.54-21.19 341.54-4.81ZM367.76-4.81L367.76-11.35Q367.76-12.35 368.14-13.22 368.52-14.09 369.17-14.75 369.81-15.41 370.69-15.78 371.57-16.16 372.55-16.16L372.55-16.16 384.95-16.16 384.95-21.19 369.25-21.19 369.25-26 384.95-26Q385.95-26 386.83-25.62 387.71-25.24 388.36-24.6 389-23.95 389.38-23.07 389.76-22.19 389.76-21.19L389.76-21.19 389.76 0 384.95 0 384.95-4.39Q384.88-3.49 384.46-2.69 384.05-1.88 383.4-1.28 382.75-0.68 381.92-0.34 381.09 0 380.17 0L380.17 0 372.55 0Q371.57 0 370.69-0.38 369.81-0.76 369.17-1.4 368.52-2.05 368.14-2.93 367.76-3.81 367.76-4.81L367.76-4.81ZM372.55-11.35L372.55-4.81 384.95-4.81 384.95-11.35 372.55-11.35ZM397.25-4.81L413.46-4.81 413.46-10.84 402.06-10.84Q401.06-10.84 400.18-11.22 399.3-11.6 398.66-12.24 398.01-12.89 397.63-13.77 397.25-14.65 397.25-15.65L397.25-15.65 397.25-21.19Q397.25-22.19 397.63-23.07 398.01-23.95 398.66-24.6 399.3-25.24 400.18-25.62 401.06-26 402.06-26L402.06-26 417.27-26 417.27-21.19 402.06-21.19 402.06-15.65 413.46-15.65Q414.46-15.65 415.33-15.27 416.2-14.89 416.86-14.25 417.52-13.6 417.89-12.72 418.27-11.84 418.27-10.84L418.27-10.84 418.27-4.81Q418.27-3.81 417.89-2.93 417.52-2.05 416.86-1.4 416.2-0.76 415.33-0.38 414.46 0 413.46 0L413.46 0 397.25 0 397.25-4.81ZM425.25-4.81L441.46-4.81 441.46-10.84 430.06-10.84Q429.06-10.84 428.18-11.22 427.3-11.6 426.66-12.24 426.01-12.89 425.63-13.77 425.25-14.65 425.25-15.65L425.25-15.65 425.25-21.19Q425.25-22.19 425.63-23.07 426.01-23.95 426.66-24.6 427.3-25.24 428.18-25.62 429.06-26 430.06-26L430.06-26 445.27-26 445.27-21.19 430.06-21.19 430.06-15.65 441.46-15.65Q442.46-15.65 443.33-15.27 444.2-14.89 444.86-14.25 445.52-13.6 445.9-12.72 446.27-11.84 446.27-10.84L446.27-10.84 446.27-4.81Q446.27-3.81 445.9-2.93 445.52-2.05 444.86-1.4 444.2-0.76 443.33-0.38 442.46 0 441.46 0L441.46 0 425.25 0 425.25-4.81ZM454.01-26L458.82-26 458.82 0 454.01 0 454.01-26ZM453.77-31.01L453.77-36.01 459.06-36.01 459.06-31.01 453.77-31.01ZM489.55-21.19L489.55-4.81Q489.55-3.81 489.18-2.93 488.8-2.05 488.15-1.4 487.5-0.76 486.64-0.38 485.77 0 484.77 0L484.77 0 471.85 0Q470.88 0 470-0.38 469.12-0.76 468.47-1.4 467.83-2.05 467.45-2.93 467.07-3.81 467.07-4.81L467.07-4.81 467.07-21.19Q467.07-22.19 467.45-23.07 467.83-23.95 468.47-24.6 469.12-25.24 470-25.62 470.88-26 471.85-26L471.85-26 484.77-26Q485.77-26 486.64-25.62 487.5-25.24 488.15-24.6 488.8-23.95 489.18-23.07 489.55-22.19 489.55-21.19L489.55-21.19ZM484.77-21.19L471.85-21.19 471.85-4.81 484.77-4.81 484.77-21.19ZM520.56-21.19L520.56 0 515.75 0 515.75-21.19 502.35-21.19 502.35 0 497.56 0 497.56-26 502.35-26 502.35-21.41Q502.39-22.36 502.78-23.21 503.18-24.05 503.82-24.67 504.47-25.29 505.32-25.65 506.18-26 507.15-26L507.15-26 515.75-26Q516.75-26 517.63-25.62 518.51-25.24 519.15-24.6 519.8-23.95 520.18-23.07 520.56-22.19 520.56-21.19L520.56-21.19Z" opacity="1" transform="matrix(1,0,0,1,0,0)" fill="#cf7650" class="slogan-text-1" data-fill-palette-color="secondary" id="text-1"></path></svg></g></svg></g></svg></g></svg></g><g><svg viewBox="0 0 88.79306533604432 181.20974983834094" height="181.20974983834094" width="88.79306533604432"><g><svg xmlns="http://www.w3.org/2000/svg" xmlns:xlink="http://www.w3.org/1999/xlink" version="1.1" x="0" y="0" viewBox="28.413 11.999 43.176 88.114" enable-background="new 0 0 100 100" xml:space="preserve" id="icon-0" width="88.79306533604432" height="181.20974983834094" class="icon-icon-0" data-fill-palette-color="accent"><path fill="#d5a187" d="M43.758 60.575L44.76 78.111H45.672L44.1 59.92A3 3 0 0 1 43.716 60.578z" data-fill-palette-color="accent"></path><path fill="#d5a187" d="M43.917 44.248L46.842 78.112H48.229L44.122 43.827A3 3 0 0 1 43.917 44.248" data-fill-palette-color="accent"></path><polygon fill="#d5a187" points="44.349,98.032 44.297,100.113 45.77,100.113 45.77,98.032 " data-fill-palette-color="accent"></polygon><rect x="46.937" y="98.032" fill="#d5a187" width="1.426" height="2.081" data-fill-palette-color="accent"></rect><polygon fill="#d5a187" points="43.129,100.099 43.182,98.032 41.169,98.032 41.169,100.113 43.713,100.113 " data-fill-palette-color="accent"></polygon><polygon fill="#d5a187" points="43.628,80.361 41.169,80.361 41.169,95.782 43.238,95.782 " data-fill-palette-color="accent"></polygon><polygon fill="#d5a187" points="44.406,95.782 45.77,95.782 45.77,80.361 44.794,80.361 " data-fill-palette-color="accent"></polygon><polygon fill="#d5a187" points="52.122,98.032 52.122,100.072 50.955,100.108 50.955,98.032 49.529,98.032 49.53,100.113   53.547,100.113 53.547,98.032 " data-fill-palette-color="accent"></polygon><rect x="46.937" y="80.361" fill="#d5a187" width="1.426" height="15.421" data-fill-palette-color="accent"></rect><path fill="#d5a187" d="M66.016 36.526C64.547 36.81 64.243 39.078 64.243 39.078H63.757C63.97 34.569 64.194 29.904 64.413 25.44H65.029S65.335 27.708 66.802 27.992C68.249 28.273 71.516 27.563 71.589 24.409 71.516 21.256 68.249 20.545 66.802 20.826 65.334 21.11 65.029 23.378 65.029 23.378H64.513C64.618 21.235 64.722 19.152 64.822 17.177 64.777 16.845 64.761 16.485 64.744 16.116 64.671 14.525 64.561 12.12 61.594 11.999H38.868C35.925 12.12 35.815 14.524 35.743 16.115 35.726 16.483 35.71 16.844 35.662 17.282L35.968 23.377H34.974S34.669 21.109 33.202 20.825C31.754 20.543 28.485 21.254 28.413 24.408 28.485 27.562 31.754 28.271 33.202 27.991 34.669 27.707 34.974 25.439 34.974 25.439H36.069C36.289 29.897 36.515 34.563 36.727 39.077H35.761S35.455 36.809 33.989 36.525C32.541 36.244 29.271 36.954 29.199 40.108 29.271 43.26 32.541 43.971 33.989 43.691 35.456 43.407 35.761 41.139 35.761 41.139H36.824C37.057 46.129 37.269 50.843 37.434 54.775H36.548S36.241 52.508 34.775 52.225C33.327 51.942 30.06 52.654 29.987 55.807 30.06 58.959 33.327 59.67 34.775 59.39 36.242 59.105 36.548 56.838 36.548 56.838H37.52C37.706 61.438 37.808 64.622 37.77 65.331 37.588 65.683 37.739 66.597 39.687 74.413 40.102 76.077 40.527 77.782 40.581 78.109H43.595L42.642 61.462A2.9 2.9 0 0 1 41.366 61.763C39.734 61.763 38.408 60.43 38.408 58.784A2.967 2.967 0 0 1 41.366 55.807C42.422 55.807 43.343 56.367 43.866 57.204L42.839 45.33C42.403 45.584 41.905 45.74 41.365 45.74A2.97 2.97 0 0 1 38.407 42.762 2.97 2.97 0 0 1 41.365 39.784C42.37 39.784 43.256 40.291 43.79 41.062L42.406 29.502A2.9 2.9 0 0 1 41.365 29.715 2.97 2.97 0 0 1 38.407 26.737 2.97 2.97 0 0 1 41.365 23.759 2.97 2.97 0 0 1 44.324 26.737C44.324 27.537 44.005 28.255 43.495 28.79L49.398 78.112H51.078L56.505 28.793A2.97 2.97 0 0 1 55.675 26.737 2.97 2.97 0 0 1 58.634 23.759 2.97 2.97 0 0 1 61.592 26.737 2.97 2.97 0 0 1 58.634 29.715C58.267 29.715 57.926 29.628 57.601 29.506L56.348 40.895A2.93 2.93 0 0 1 58.634 39.785 2.97 2.97 0 0 1 61.592 42.763 2.97 2.97 0 0 1 58.634 45.741 2.9 2.9 0 0 1 57.182 45.343L56.338 56.93A2.94 2.94 0 0 1 58.634 55.811 2.97 2.97 0 0 1 61.592 58.788C61.592 60.434 60.266 61.767 58.634 61.767 58.184 61.767 57.762 61.658 57.38 61.477L56.841 78.114H59.903C59.957 77.787 60.382 76.081 60.798 74.417 62.748 66.6 62.899 65.687 62.716 65.336 62.678 64.627 62.779 61.444 62.967 56.843H63.453S63.761 59.11 65.226 59.395C66.676 59.675 69.942 58.964 70.015 55.812 69.942 52.659 66.676 51.947 65.226 52.23 63.76 52.513 63.453 54.78 63.453 54.78H63.051C63.216 50.849 63.428 46.136 63.66 41.144H64.242S64.547 43.412 66.015 43.696C67.462 43.976 70.731 43.266 70.804 40.113 70.731 36.956 67.463 36.245 66.016 36.526" data-fill-palette-color="accent"></path><rect x="52.121" y="80.361" fill="#d5a187" width="1.426" height="15.421" data-fill-palette-color="accent"></rect><polygon fill="#d5a187" points="56.111,98.032 54.714,98.032 54.714,100.113 56.164,100.113 " data-fill-palette-color="accent"></polygon><polygon fill="#d5a187" points="57.278,98.032 57.331,100.099 56.747,100.113 59.313,100.113 59.313,98.032 " data-fill-palette-color="accent"></polygon><polygon fill="#d5a187" points="59.313,80.361 56.831,80.361 57.222,95.782 59.313,95.782 " data-fill-palette-color="accent"></polygon><polygon fill="#d5a187" points="54.713,80.361 54.714,95.782 56.054,95.782 55.666,80.361 " data-fill-palette-color="accent"></polygon><path fill="#d5a187" d="M54.798 78.111H55.674L56.241 60.589 56.296 60.592A3 3 0 0 1 56.094 60.292z" data-fill-palette-color="accent"></path><rect x="49.526" y="80.361" fill="#d5a187" width="1.429" height="15.421" data-fill-palette-color="accent"></rect><path fill="#d5a187" d="M52.25 78.111H53.629L56.091 44.258A4 4 0 0 1 55.996 44.084z" data-fill-palette-color="accent"></path></svg></g></svg></g></svg></g><defs></defs></svg><rect width="395.52" height="141.81753670173006" fill="none" stroke="none" visibility="hidden"></rect></g></svg></g></svg>